<svg width="155" height="146" viewBox="0 0 155 146" fill="none" xmlns="http://www.w3.org/2000/svg">
<path d="M109.973 0H45.0275C16.8175 0 0 15.841 0 42.413V103.587C0 124.1 9.9975 138.189 27.59 143.518C32.705 145.197 38.595 146 45.0275 146H109.973C116.405 146 122.295 145.197 127.41 143.518C145.003 138.189 155 124.1 155 103.587V42.413C155 15.841 138.183 0 109.973 0ZM143.375 103.587C143.375 119.209 136.865 129.064 123.767 133.152C116.25 119.209 98.425 109.281 77.5 109.281C56.575 109.281 38.8275 119.136 31.2325 133.152H31.155C18.2125 129.21 11.625 119.282 11.625 103.66V42.413C11.625 21.827 23.1725 10.95 45.0275 10.95H109.973C131.828 10.95 143.375 21.827 143.375 42.413V103.587Z" fill="#292D32"/>
<path d="M77.5147 43.8C62.1697 43.8 49.7695 55.48 49.7695 69.934C49.7695 84.388 62.1697 96.141 77.5147 96.141C92.8597 96.141 105.26 84.388 105.26 69.934C105.26 55.48 92.8597 43.8 77.5147 43.8Z" fill="#292D32"/>
</svg>
