<svg width="90" height="91" viewBox="0 0 90 91" fill="none" xmlns="http://www.w3.org/2000/svg">
<path opacity="0.4" d="M63.8868 0H26.158C9.76987 0 0 9.76987 0 26.158V63.8418C0 80.275 9.76987 90.0449 26.158 90.0449H63.8418C80.23 90.0449 89.9998 80.275 89.9998 63.8868V26.158C90.0449 9.76987 80.275 0 63.8868 0Z" fill="#292D32"/>
<path d="M45.0234 58.1231C44.1679 58.1231 43.3125 57.8079 42.6372 57.1326L26.7441 41.2397C25.4384 39.934 25.4384 37.7729 26.7441 36.4673C28.0497 35.1617 30.2108 35.1617 31.5164 36.4673L45.0234 49.974L58.5301 36.4673C59.8357 35.1617 61.9968 35.1617 63.3025 36.4673C64.6081 37.7729 64.6081 39.934 63.3025 41.2397L47.4095 57.1326C46.7342 57.8079 45.8788 58.1231 45.0234 58.1231Z" fill="#292D32"/>
</svg>
