<svg width="80" height="82" viewBox="0 0 80 82" fill="none" xmlns="http://www.w3.org/2000/svg">
<path d="M56.1863 0H23.0051C8.59226 0 0 8.81338 0 23.5971V57.5916C0 72.4159 8.59226 81.2293 23.0051 81.2293H56.1467C70.5595 81.2293 79.1518 72.4159 79.1518 57.6322V23.5971C79.1914 8.81338 70.5991 0 56.1863 0ZM59.3935 61.9373H19.7978C18.1744 61.9373 16.8282 60.5564 16.8282 58.8912C16.8282 57.226 18.1744 55.8451 19.7978 55.8451H59.3935C61.017 55.8451 62.3632 57.226 62.3632 58.8912C62.3632 60.5564 61.017 61.9373 59.3935 61.9373ZM59.3935 43.6607H19.7978C18.1744 43.6607 16.8282 42.2798 16.8282 40.6146C16.8282 38.9494 18.1744 37.5685 19.7978 37.5685H59.3935C61.017 37.5685 62.3632 38.9494 62.3632 40.6146C62.3632 42.2798 61.017 43.6607 59.3935 43.6607ZM59.3935 25.3841H19.7978C18.1744 25.3841 16.8282 24.0033 16.8282 22.3381C16.8282 20.6729 18.1744 19.292 19.7978 19.292H59.3935C61.017 19.292 62.3632 20.6729 62.3632 22.3381C62.3632 24.0033 61.017 25.3841 59.3935 25.3841Z" fill="#FEFEFE"/>
</svg>
